<?xml version="1.0" encoding="utf-8"?>
<!-- Generator: Adobe Illustrator 19.0.0, SVG Export Plug-In . SVG Version: 6.00 Build 0)  -->
<svg version="1.1" id="layer" xmlns="http://www.w3.org/2000/svg" xmlns:xlink="http://www.w3.org/1999/xlink" x="0px" y="0px"
	 viewBox="-153 -46 652 652" style="enable-background:new -153 -46 652 652;" xml:space="preserve">
<style type="text/css">
	.st0{fill:#041146;}
</style>
<path id="Fill-20" class="st0" d="M-63.9,392.1c-7.5,0-11-4.6-7.7-10.2l27.1-46.9l40.7-70.3c3.2-5.6,9-4.9,12.7,1.6l9.1,15.7
	c3.7,6.5,4.2,16.4,0.9,22l-40.7,70.3l-4.4,7.6c-3.2,5.6-12,10.2-19.5,10.2H-63.9z"/>
<path id="Fill-23" class="st0" d="M74.8,380.3l-9.1-15.7c-3.7-6.5-12.1-11.8-18.6-11.8h-81.4H-43c-6.5,0-14.9,5.3-18.6,11.8
	l-9.1,15.7c-3.7,6.5-1.5,11.8,5,11.8h54.1h81.4C76.3,392.1,78.5,386.8,74.8,380.3"/>
<path class="st0" d="M134.3,381.9L8.3,163.8c-3.2-5.6-12-10.2-19.5-10.2h-18.2c-7.5,0-11,4.6-7.7,10.2l126,218.1
	c3.2,5.6,12,10.2,19.5,10.2h18.2C134,392.1,137.5,387.5,134.3,381.9 M-122.3,392.1h18.2c7.5,0,16.3-4.6,19.5-10.2l70-121.2l4.4-7.6
	c3.2-5.6,2.8-15.5-0.9-22l-9.1-15.7c-3.7-6.5-9.5-7.2-12.7-1.6l-57.3,99.2l-39.8,68.9C-133.3,387.5-129.8,392.1-122.3,392.1
	 M192,391.8h-42.1c-1.4,0-2.5-1.1-2.5-2.5V212c0-1.4,1.1-2.5,2.5-2.5H192c1.4,0,2.5,1.1,2.5,2.5v177.4
	C194.5,390.7,193.4,391.8,192,391.8 M287.2,396.6c-25.1,0-44.6-8.3-59.4-25.3c-14.5-16.4-21.9-38.1-21.9-64.7
	c0-22.4,3.9-40.1,12.2-55.7c14.1-26.4,40.2-42.2,69.7-42.2c17.9,0,36.1,5.8,46.4,14.7c1.5,1.3,1.7,3.4,0.7,5L319,252.2
	c-0.6,0.9-1.5,1.5-2.5,1.7c-1,0.2-2.1-0.1-3-0.7c-8-6-16.5-9-25.4-9c-10.5,0-20.8,5.2-26.2,13.3c-6.2,9.2-9.1,22.7-9.1,42.5
	c0,23.3,1.9,35.8,6.7,44.6c6.4,11.6,16.5,17.5,30,17.5c8.6,0,16-2.4,23.9-7.8c1-0.7,2.1-1.7,3.3-2.6c0.8-0.7,1.9-1,2.9-0.8
	c1,0.1,2,0.7,2.6,1.5l15.9,22c1.2,1.6,0.9,3.9-0.7,5.2C323.3,391.3,307.7,396.6,287.2,396.6 M459,391.8H353c-1.4,0-2.5-1.1-2.5-2.5
	V212c0-1.4,1.1-2.5,2.5-2.5h41.3c1.4,0,2.5,1.1,2.5,2.5v141.4h69.4c0.8,0,1.5,0.3,2,0.9c0.5,0.6,0.7,1.4,0.5,2.1l-7.2,33.5
	C461.2,391,460.2,391.8,459,391.8"/>
</svg>
